<?xml version="1.0" encoding="UTF-8" standalone="no"?>
<!DOCTYPE svg PUBLIC "-//W3C//DTD SVG 20010904//EN" "http://www.w3.org/TR/2001/REC-SVG-20010904/DTD/svg10.dtd">

<svg xmlns="http://www.w3.org/2000/svg" width="1.33in" height="1.13667in" viewBox="0 0 399 341">
  <path id="パス" fill="white" stroke="black" stroke-width="1" d="M 12.70,139.02
           C 12.70,118.88 11.98,98.34 10.53,77.38
             9.09,56.42 6.63,30.81 3.14,0.56
             3.14,0.56 99.52,18.77 99.52,18.77
             94.55,53.53 91.29,77.09 89.72,89.44
             86.83,113.07 84.66,134.85 83.22,154.77
             81.78,174.67 81.06,194.83 81.06,215.23
             81.06,215.23 81.06,222.77 81.06,222.77
             81.06,234.48 82.08,243.18 84.12,248.86
             86.49,255.29 90.77,258.50 96.97,258.50
             110.76,258.50 121.43,249.61 128.98,231.81
             135.41,216.73 138.62,199.84 138.62,181.16
             138.62,156.21 136.41,129.28 131.98,100.36
             128.58,77.60 122.47,47.93 113.66,11.36
             113.66,11.36 217.12,1.50 217.12,1.50
             210.32,39.06 205.55,70.98 202.80,97.27
             200.05,123.54 198.69,150.38 198.69,177.80
             198.69,225.46 190.11,259.44 172.97,279.72
             158.12,297.24 137.02,306.00 109.66,306.00
             83.04,306.00 60.30,299.14 41.44,285.42
             19.89,269.79 9.12,248.70 9.12,222.14
             9.12,219.61 10.05,202.04 11.92,169.42
             12.44,160.34 12.70,150.20 12.70,139.02 Z
           M 400.45,335.06
           C 400.45,335.06 314.20,340.64 314.20,340.64
             316.21,327.07 317.34,317.34 317.59,311.47
             317.85,305.59 317.98,298.50 317.98,290.19
             317.98,270.76 316.08,252.90 312.27,236.61
             307.17,214.48 300.34,203.42 291.78,203.42
             287.78,203.42 285.29,203.79 284.30,204.52
             284.30,204.52 299.45,334.86 299.45,334.86
             299.45,334.86 216.95,334.86 216.95,334.86
             220.72,307.85 223.59,284.67 225.55,265.33
             227.50,245.98 228.48,227.48 228.48,209.81
             228.48,193.61 227.82,174.19 226.50,151.56
             225.19,128.94 223.93,106.17 222.73,83.27
             221.55,60.36 220.95,38.12 220.95,16.56
             240.60,13.86 259.05,12.50 276.33,12.50
             314.30,12.50 342.21,19.12 360.05,32.34
             381.55,48.25 392.30,75.02 392.30,112.66
             392.30,128.01 386.61,143.00 375.23,157.62
             363.86,172.25 355.60,180.08 350.47,181.11
             357.83,188.48 367.53,209.54 379.56,244.28
             389.52,273.34 396.48,303.61 400.45,335.06 Z
           M 285.95,62.38
           C 285.95,62.38 281.09,152.30 281.09,152.30
             281.09,152.30 281.09,149.47 281.09,149.47
             293.13,149.47 300.90,148.50 304.39,146.56
             308.35,144.32 311.50,138.30 313.84,128.48
             315.81,120.15 316.80,112.21 316.80,104.66
             316.80,91.54 313.47,81.50 306.83,74.53
             300.18,67.55 293.22,63.50 285.95,62.38 Z
           M 579.00,-15.00" />
</svg>